<svg width="29" height="25" viewBox="0 0 29 29" fill="none" xmlns="http://www.w3.org/2000/svg">
    <path id="Library"
        d="M3.07684 10H25.923M3.07684 10V25.75C3.07684 26.3467 3.29567 26.9191 3.68515 27.341C4.07466 27.7628 4.60292 28 5.15377 28H23.8461C24.3969 28 24.9252 27.7628 25.3147 27.341C25.7041 26.9191 25.923 26.3467 25.923 25.75V10M3.07684 10C1.92979 10 1 8.99263 1 7.75V3.25C1 2.00737 1.92987 1 3.07692 1H25.9231C27.0702 1 28 2.00737 28 3.25V7.75C28 8.99263 27.0701 10 25.923 10M11.3846 16.75H17.6154"
        stroke="#D3337E" stroke-width="2" stroke-linecap="round" stroke-linejoin="round" />
</svg>